<?xml version="1.0" standalone="no"?>
<!DOCTYPE svg PUBLIC "-//W3C//DTD SVG 20010904//EN"
 "http://www.w3.org/TR/2001/REC-SVG-20010904/DTD/svg10.dtd">
<svg version="1.0" xmlns="http://www.w3.org/2000/svg"
 width="157.000000pt" height="157.000000pt" viewBox="0 0 157.000000 157.000000"
 preserveAspectRatio="xMidYMid meet">
<metadata>
Created by potrace 1.14, written by Peter Selinger 2001-2017
</metadata>
<g transform="translate(0.000000,157.000000) scale(0.100000,-0.100000)"
fill="#000000" stroke="none">
<path d="M700 1542 c-312 -37 -572 -260 -654 -562 -8 -30 -16 -71 -18 -90 l-3
-35 761 -3 762 -2 -15 76 c-51 269 -246 493 -508 582 -88 29 -235 45 -325 34z"/>
<path d="M442 712 l-423 -2 6 -33 c3 -17 7 -39 9 -47 1 -8 5 -24 9 -35 7 -20
15 -20 664 -19 362 0 661 -1 665 -3 12 -6 -31 -94 -78 -160 -120 -169 -325
-267 -536 -258 -96 5 -170 25 -266 73 -68 34 -74 36 -84 19 -5 -10 -23 -33
-39 -52 l-30 -33 28 -20 c66 -46 187 -96 261 -108 21 -3 41 -8 45 -11 11 -6
194 -5 227 2 136 27 249 75 347 148 68 51 158 154 202 232 37 66 79 182 89
250 l9 55 -41 0 c-23 0 -176 1 -341 3 -165 1 -490 1 -723 -1z"/>
</g>
</svg>
