<?xml version="1.0" encoding="UTF-8" standalone="no"?>
<svg
   id="Layer_2"
   data-name="Layer 2"
   viewBox="0 0 207.83 145.58"
   version="1.1"
   xmlns="http://www.w3.org/2000/svg"
   xmlns:svg="http://www.w3.org/2000/svg">
  <defs
     id="defs1">
    <style
       id="style1">
      .cls-1 {
        fill: #25408f;
      }

      .cls-2 {
        fill: #ef372e;
      }
    </style>
  </defs>
  <g
     id="Layer_1-2"
     data-name="Layer 1">
    <path
       class="cls-2"
       d="m155.13,52.26C152.54,22.97,127.95,0,97.99,0s-54.55,22.97-57.14,52.26h114.29Zm-90.39,51.81c9.38,6.69,20.84,10.68,33.24,10.68,29.93,0,54.5-22.91,57.13-52.15H40.85c.32,3.53.97,6.97,1.9,10.29h10.9s0,0,0,0h89.11c-6.46,18.45-23.96,31.69-44.56,31.69-10.09,0-19.43-3.19-27.1-8.6l-6.37,8.1h0Z"
       id="path1" />
    <path
       class="cls-1"
       d="m207.07,38.09c-1.18-1.5-3.32-1.73-4.78-.52-10.41,8.67-24.1,16.65-28.53,15.18-.29-1.63,1-6.29,1.7-8.86,1.71-6.23,3.19-11.61-.55-14.22-2.93-2.04-5.67.9-7.31,2.66-1.56,1.67-3.47,3.98-5.7,6.66-3.39,4.08-7.22,8.7-10.83,12.31-5.08,5.09-6.97,5.36-7.21,5.37-.95-.24-1.18-.62-1.32-1.01-1.55-3.95,3.69-15.28,7.72-21.69,1.02-1.62.57-3.79-1-4.84-.63-.42-1.36-.6-2.06-.55-1.08-.17-2.23.21-3.02,1.1-4.37,4.94-12.29,13.28-15.88,15.68-1.33-.53-4.23-2.97-6.45-5.47-1.26-1.43-3.41-1.53-4.8-.23-.64.6-1.01,1.4-1.09,2.23-1.14.15-2.23.56-3.27,1.19-.32.08-.63.2-.93.37l-9.92,5.85,11.94-34.87c.62-1.82-.3-3.82-2.07-4.46-1.77-.64-3.71.31-4.33,2.14l-13.65,39.88-5.34-2.45c-1.71-.79-3.72,0-4.48,1.77-.76,1.77,0,3.83,1.72,4.62l5.83,2.68-.45,1.31c-.17.17-.32.37-.45.58-2.53,4.09-19.71,25.23-26.34,28.6-.41.21-.69.3-.87.35-.24-.45-.43-1.3-.52-2.49,11.98-10.12,21.07-20.13,18.08-28.29-1.19-3.23-3.77-5.02-6.9-4.78-6.93.54-14.96,11.09-16.68,19.35-.69,3.3-1.26,7-1.37,10.46-1.77,1.45-3.51,2.83-5.12,4.1,1.25-6.35,2.2-12.18,2.84-17.43,2.32-19.32.3-29.62-6.38-32.41-7.23-3.02-16.93,2.78-29.67,17.73C8.93,65.9.85,76.76.56,77.21c-1.03,1.61-.6,3.78.96,4.85,1.56,1.06,3.67.62,4.7-.99.07-.11,8.11-10.91,16.52-20.79,14.61-17.14,20.54-16.47,22.01-15.86,2.93,1.22,5.93,13.41-2.31,50.29-10.86,9.67-30.31,29.33-29.86,41.52.12,3.35,1.62,6.07,4.34,7.87,1.49.99,3.08,1.49,4.72,1.49,1.11,0,2.23-.23,3.36-.69,4.95-2.02,9.81-8.56,14.85-19.98,3.83-8.68,6.68-17.88,7.66-21.95.36-1.51.71-3,1.05-4.47,1.24-1.07,2.42-2.03,3.49-2.88l.76-.59c1.4-1.09,2.8-2.19,4.18-3.29.52,1.39,1.27,2.55,2.31,3.38,1.22.98,3.86,2.31,7.94.24,4.37-2.22,11.18-9.21,17.15-16.06l-3.35,9.8c-.62,1.82.31,3.82,2.07,4.46.37.14.75.2,1.13.2,1.4,0,2.71-.9,3.2-2.34l10.96-32.02,5.57-3.28c-.14.42-.27.84-.39,1.26-3.05,10.63-1.06,19.73,4.72,21.55.64.2,1.32.35,2,.35h0c6.13,0,11.11-7.86,13.33-15.6,1.29-4.5,1.67-8.74,1.26-12.24,1.18.62,2.43,1.03,3.67,1.03.87,0,1.73-.21,2.57-.69,1.45-.83,3.35-2.39,5.38-4.25-1.07,3.91-1.44,7.77-.27,10.76,1.07,2.71,3.19,4.51,6.15,5.21.46.11.93.16,1.42.16,6.05,0,13.54-8.43,23.25-20.13.68-.82,1.41-1.7,2.13-2.56-.1.36-.19.7-.28,1.01-1.83,6.65-3.9,14.18,1.49,16.91,4.77,2.42,12.22.38,22.77-6.23,7.15-4.49,13.12-9.44,13.37-9.65,1.46-1.21,1.68-3.42.5-4.92h0ZM64,74.68c1.5-7.21,8.27-13.73,10.46-13.84.03.06.08.15.12.28.31.84.67,4.23-7.57,12.66-1.11,1.13-2.28,2.27-3.49,3.38.13-.8.29-1.63.47-2.48h0Zm-41.5,63.7c-.74.3-1.25.25-1.9-.17-.84-.56-1.19-1.19-1.23-2.26-.24-6.35,9.88-18.76,19.9-28.79-3.73,11.91-11.01,28.88-16.77,31.23h0ZM117.13,61.65c-2.12,7.41-5.74,10.54-6.82,10.54h0c-.8-.36-2.43-5.07-.2-12.84,2.12-7.4,5.74-10.54,6.82-10.54.8.36,2.43,5.07.2,12.84h0Z"
       id="path2"
       style="stroke:none;stroke-opacity:1;fill:#726880;fill-opacity:0.75850338" />
  </g>
</svg>
